P3
# some_image.ppm (Note this is just a comment)
2 2
255
12 34 56 67 100 13 
1
2
3
4
5
255 